Motion_pl15
version=1
nRows=10
nColumns=43
inDegrees=yes
endheader
time	pelvis_tilt	pelvis_list	pelvis_rotation	pelvis_tx	pelvis_ty	pelvis_tz	hip_flexion_r	hip_adduction_r	hip_rotation_r	knee_angle_r	ankle_angle_r	subtalar_angle_r	mtp_angle_r	hip_flexion_l	hip_adduction_l	hip_rotation_l	knee_angle_l	ankle_angle_l	subtalar_angle_l	mtp_angle_l	lumbar_extension	lumbar_bending	lumbar_rotation	neck_flexion	neck_lateral_bending	neck_rotation	arm_flex_r	arm_add_r	arm_rot_r	elbow_flex_r	pro_sup_r	wrist_flex_r	wrist_dev_r	hand_finger_flex_r	arm_flex_l	arm_add_l	arm_rot_l	elbow_flex_l	pro_sup_l	wrist_flex_l	wrist_dev_l	hand_finger_flex_l
      0.00250000	      4.21529903	    -12.57306152	     90.32534889	      0.05109838	      1.92244451	      1.94320329	     69.61838758	      4.74152711	     -1.64435293	   -106.61866797	     25.49705945	      4.01756844	     15.15062239	     71.80171537	     -7.96213587	      3.43918932	   -110.69858459	     21.81099991	      5.30682714	     11.81885846	    -52.65136405	      2.99920173	      2.11812032	     23.30639225	     -3.57208510	      4.30242008	      4.18541817	    -16.98652604	    -13.40232039	     60.70350038	    113.96940593	     -1.20913072	     -6.93572413	     23.60296228	     -1.19230471	    -15.63508165	    -15.99659140	     62.93513126	    112.15146196	     -0.24370001	      0.35174510	     21.25172891
      0.00500000	      4.20387619	    -12.49308589	     90.33806535	      0.05112764	      1.92023539	      1.94306718	     69.79093125	      4.71692549	     -1.65992352	   -107.08797241	     25.54250247	      4.03609057	     15.16408542	     71.99332459	     -7.99012120	      3.42919234	   -111.13840570	     21.83480856	      5.25168893	     11.86003499	    -52.92254709	      2.99093230	      2.09695645	     23.45302751	     -3.56733520	      4.33308770	      4.41470007	    -16.97274986	    -13.41690686	     60.82222908	    113.93595147	     -1.20632736	     -6.97948831	     23.59138700	     -1.04077032	    -15.66625742	    -15.97344838	     62.93875684	    112.16305615	     -0.26387481	      0.34235502	     21.22420894
      0.00750000	      4.17417608	    -12.59470586	     90.36341878	      0.05115358	      1.91768085	      1.94322432	     70.19245256	      4.66248179	     -1.66954844	   -107.55422370	     25.62586872	      4.10456914	     15.20078001	     72.39781351	     -7.97415767	      3.41181473	   -111.55424808	     21.83368536	      5.12156978	     12.04727476	    -53.11060598	      2.98308295	      2.05393938	     24.04658781	     -3.59460624	      4.45834187	      4.50395271	    -16.95898285	    -13.53125550	     61.22559498	    113.66240103	     -1.09559940	     -7.11904781	     23.58714448	     -1.02115114	    -15.74172964	    -15.95362036	     63.21480942	    112.15929728	     -0.36726973	      0.22152443	     21.10870677
      0.01000000	      4.15113823	    -12.52636117	     90.37130074	      0.05116740	      1.91539491	      1.94307933	     70.38244514	      4.63650011	     -1.67722366	   -108.02915255	     25.66379388	      4.08870889	     15.21495472	     72.60516908	     -7.99877577	      3.40158066	   -112.00876104	     21.83490723	      5.10368493	     12.08864437	    -53.35921867	      2.96189676	      2.03585967	     24.15247134	     -3.58109646	      4.45470990	      4.73895146	    -16.94722365	    -13.55953883	     61.31772453	    113.59031786	     -1.07706470	     -7.13532865	     23.57904945	     -0.84811966	    -15.74862432	    -15.95852628	     63.19547475	    112.15813621	     -0.39936418	      0.21093478	     21.07616531
      0.01250000	      4.07269873	    -12.72241802	     90.36818777	      0.05121780	      1.91250223	      1.94330498	     70.92993934	      4.57981260	     -1.65636929	   -108.54059655	     25.68119766	      4.00853922	     15.26160267	     73.13016387	     -7.97633832	      3.34451246	   -112.44943703	     21.78017948	      5.10343287	     12.29870176	    -53.41967361	      2.90005252	      1.98791218	     24.67694915	     -3.58751582	      4.47253023	      4.79327760	    -16.95038585	    -13.67238274	     61.72700265	    113.16944343	     -0.88340978	     -7.20073905	     23.60181725	     -0.81912645	    -15.79190550	    -16.00503264	     63.42865678	    112.08585742	     -0.47935705	      0.06884965	     20.94988636
      0.01500000	      4.03958091	    -12.65840384	     90.36461442	      0.05120853	      1.91014865	      1.94316148	     71.13508277	      4.54773480	     -1.66215777	   -109.01773790	     25.70338158	      3.97571664	     15.27819032	     73.34229692	     -8.00225905	      3.33082367	   -112.91666653	     21.78922897	      5.09603752	     12.33851867	    -53.65750147	      2.86933576	      1.97728760	     24.75754968	     -3.57338858	      4.46298421	      5.04427369	    -16.95280873	    -13.68889923	     61.80219853	    113.10335029	     -0.86706061	     -7.20304250	     23.59509742	     -0.63035441	    -15.80692768	    -16.00634745	     63.39603374	    112.07491589	     -0.48780089	      0.06199417	     20.92268218
      0.01750000	      3.99735770	    -12.61972882	     90.35189628	      0.05121698	      1.90767105	      1.94306083	     71.38479111	      4.51654075	     -1.68304345	   -109.51436424	     25.72797398	      3.92695360	     15.29731770	     73.57704473	     -8.02161489	      3.29925313	   -113.38854954	     21.80232594	      5.09798064	     12.37806682	    -53.87946374	      2.82725628	      1.95933302	     24.89582287	     -3.55995588	      4.45150339	      5.26094675	    -16.96565535	    -13.70037916	     61.95001255	    113.02943419	     -0.84235756	     -7.22676626	     23.59641104	     -0.46796531	    -15.84525920	    -16.02463942	     63.40318676	    112.04797963	     -0.48257972	      0.03991442	     20.89812183
      0.02000000	      3.83483102	    -12.97984582	     90.28583590	      0.05125118	      1.90439834	      1.94349493	     72.15965864	      4.46648910	     -1.56968278	   -110.03684070	     25.64443331	      3.69294305	     15.37422323	     74.27548497	     -8.00274763	      3.16497738	   -113.82064457	     21.82717997	      5.18806830	     12.59835167	    -53.77938250	      2.67698201	      1.89110207	     25.50596486	     -3.54644763	      4.42787879	      5.26233042	    -17.05826961	    -13.70019708	     62.45398770	    112.67612559	     -0.66736972	     -7.28608868	     23.64754219	     -0.44100451	    -15.90696967	    -16.07741403	     63.66559065	    111.81433691	     -0.30912909	     -0.13842085	     20.80077097
      0.02250000	      3.79801429	    -12.92161601	     90.28048142	      0.05124525	      1.90202529	      1.94336801	     72.37249749	      4.44004904	     -1.57402497	   -110.50196113	     25.66314015	      3.65868987	     15.39615171	     74.47756896	     -8.03229338	      3.14215775	   -114.27859806	     21.84530784	      5.18685799	     12.63353521	    -54.00939581	      2.64051969	      1.88708315	     25.56511641	     -3.53451589	      4.41618592	      5.52626288	    -17.05058134	    -13.70671830	     62.51935535	    112.63571276	     -0.67350469	     -7.28763842	     23.63855711	     -0.23023220	    -15.93760945	    -16.09442291	     63.62903999	    111.78603546	     -0.29035269	     -0.14184673	     20.77375038
      0.02500000	      3.77213556	    -12.89417299	     90.28776227	      0.05111718	      1.90011723	      1.94352558	     72.56843102	      4.41299096	     -1.56558292	   -110.82369909	     25.70260312	      3.63501764	     15.40859944	     74.67269443	     -8.06360758	      3.14062326	   -114.56376495	     21.86859912	      5.18305820	     12.64532047	    -54.29501161	      2.61070609	      1.89634092	     25.56075409	     -3.52962188	      4.40992242	      5.83284988	    -17.04348599	    -13.70530742	     62.65310182	    112.61627277	     -0.68381182	     -7.31406960	     23.63105467	      0.04314379	    -15.96197938	    -16.10789086	     63.69999824	    111.76678859	     -0.28779869	     -0.16186040	     20.76143039
